<svg id="Layer_1" data-name="Layer 1" xmlns="http://www.w3.org/2000/svg" viewBox="0 0 820 820">
    <g transform="matrix(1.06396,0,0,1.06396,-30.0565,-29.5647)">
        <g transform="matrix(1,0,0,1,-546.61,-126.61)">
            <path id="path_1" d="M923.82,456.87L833.35,456.87C834.11,455.61 834.73,454.53 835.35,453.49C846.4,436.184 851.559,415.758 850.05,395.28C847.25,352.99 816.44,317.28 774.96,307.78C721.72,295.66 668.6,330.66 658.74,384.35C657.658,390.172 657.113,396.081 657.113,402.002C657.113,448.892 691.257,489.344 737.48,497.22C743.1,498.124 748.788,498.549 754.48,498.49C891.63,498.56 1028.79,498.04 1165.94,498.76C1233.94,499.12 1286.02,529.76 1321.49,587.83C1334.97,609.83 1342.32,634.19 1344.75,659.96C1353.06,748.18 1297.04,828.45 1211.48,850.65C1191.22,856.077 1170.12,857.662 1149.28,855.32C1085.66,847.85 1038.62,815.64 1008.02,759.57C997.02,739.31 991.02,717.35 988.82,694.35C986.574,670.646 989.069,646.73 996.16,624C996.3,623.57 996.5,623.16 996.72,622.64L1087.16,622.64C1086.67,623.5 1086.28,624.24 1085.83,624.94C1075.69,640.587 1070.29,658.841 1070.29,677.487C1070.29,722.188 1101.31,761.334 1144.83,771.55C1197.76,784.31 1252.12,748.83 1261.72,695.27C1270.72,644.92 1240.33,597 1191.2,583.97C1179.97,580.97 1168.55,580.9 1157.07,580.9C1022.85,580.9 888.63,581.45 754.42,580.7C686.42,580.33 634.37,549.62 598.94,491.53C585.53,469.53 578.3,445.32 575.74,419.67C568.317,345.234 608.372,273.661 675.7,241.06C694.692,231.806 715.197,226.048 736.23,224.06C824.32,215.69 904.13,271.26 926.8,357.06C935.38,389.57 934.37,422.06 924.8,454.25C924.54,455.16 924.16,456 923.82,456.87Z"/>
        </g>
        <g transform="matrix(1,0,0,1,-546.61,-126.61)">
            <path id="path_2" d="M1073.55,456.87L983.09,456.87C963.7,400.87 973.35,318.75 1039.35,264.02C1102.67,211.51 1194.52,209.36 1260.16,258.81C1329,310.67 1344.16,394.51 1323.16,456.81L1232.76,456.81C1249.44,431.08 1254.14,403.54 1245.52,374.2C1239.34,353.2 1226.98,336.26 1209.17,323.47C1173.5,297.822 1124.57,299.731 1091,328.08C1072.08,344.08 1060.7,364.47 1057.36,389.02C1054.02,413.57 1059.62,436 1073.55,456.87Z"/>
        </g>
        <g transform="matrix(1,0,0,1,-546.61,-126.61)">
            <path id="path_3" d="M597.49,622.58L687.79,622.58C670.2,649.99 665.9,679.08 676.56,709.86C683.35,729.44 695.61,745.1 712.66,756.86C747.537,781.18 794.616,779.543 827.72,752.86C847.33,737.07 859.22,716.62 862.94,691.64C866.66,666.66 861.02,643.82 847.07,622.64L937.43,622.64C956.36,676.46 948.43,759.38 881.5,815.25C817.26,868.93 723.1,870.25 656.98,818.04C588.43,763.87 577.63,679.93 597.49,622.58Z"/>
        </g>
    </g>
    <defs>
        <linearGradient id="light_linear_1" x1="0" y1="0" x2="1" y2="0" gradientUnits="userSpaceOnUse" gradientTransform="matrix(770.705,1.71131e-13,-1.71131e-13,770.705,574.86,539.799)"><stop offset="0" style="stop-color:rgb(0,57,86);stop-opacity:1"/><stop offset="0.5" style="stop-color:rgb(5,54,183);stop-opacity:1"/><stop offset="1" style="stop-color:rgb(0,88,132);stop-opacity:1"/></linearGradient>
        <linearGradient id="light_linear_2" x1="0" y1="0" x2="1" y2="0" gradientUnits="userSpaceOnUse" gradientTransform="matrix(357.705,7.94265e-14,-7.94265e-14,357.705,974.212,340)"><stop offset="0" style="stop-color:rgb(0,57,86);stop-opacity:1"/><stop offset="0.5" style="stop-color:rgb(5,54,183);stop-opacity:1"/><stop offset="1" style="stop-color:rgb(0,88,132);stop-opacity:1"/></linearGradient>
        <linearGradient id="light_linear_3" x1="0" y1="0" x2="1" y2="0" gradientUnits="userSpaceOnUse" gradientTransform="matrix(357.74,7.94342e-14,-7.94342e-14,357.74,588.607,739.474)"><stop offset="0" style="stop-color:rgb(0,57,86);stop-opacity:1"/><stop offset="0.5" style="stop-color:rgb(5,54,183);stop-opacity:1"/><stop offset="1" style="stop-color:rgb(0,88,132);stop-opacity:1"/></linearGradient>

        <!-- <linearGradient id="dark_linear_1" x1="0" y1="0" x2="1" y2="0" gradientUnits="userSpaceOnUse" gradientTransform="matrix(770.705,2.15122e-13,-1.71131e-13,968.823,574.86,539.799)"><stop offset="0" style="stop-color:rgb(59,132,170);stop-opacity:1"/><stop offset="0.5" style="stop-color:rgb(115,165,191);stop-opacity:1"/><stop offset="1" style="stop-color:rgb(59,132,170);stop-opacity:1"/></linearGradient>
        <linearGradient id="dark_linear_2" x1="0" y1="0" x2="1" y2="0" gradientUnits="userSpaceOnUse" gradientTransform="matrix(357.705,7.94176e-14,-7.94265e-14,357.665,974.212,340)"><stop offset="0" style="stop-color:rgb(59,132,170);stop-opacity:1"/><stop offset="0.5" style="stop-color:rgb(115,165,191);stop-opacity:1"/><stop offset="1" style="stop-color:rgb(59,132,170);stop-opacity:1"/></linearGradient>
        <linearGradient id="dark_linear_3" x1="0" y1="0" x2="1" y2="0" gradientUnits="userSpaceOnUse" gradientTransform="matrix(357.74,7.94342e-14,-7.94342e-14,357.74,588.607,739.474)"><stop offset="0" style="stop-color:rgb(59,132,170);stop-opacity:1"/><stop offset="0.5" style="stop-color:rgb(115,165,191);stop-opacity:1"/><stop offset="1" style="stop-color:rgb(59,132,170);stop-opacity:1"/></linearGradient> -->

    </defs>

    <style>
        #path_1 {
            fill: url(#light_linear_1);
            fill-rule:nonzero;
        }
        #path_2 {
            fill: url(#light_linear_2);
            fill-rule:nonzero;
        }
        #path_3 {
            fill: url(#light_linear_3);
            fill-rule:nonzero;
        }
        @media (prefers-color-scheme: dark) {
            <!-- #path_1 {
            fill: url(#dark_linear_1);
            fill-rule:nonzero;
            }
            #path_2 {
                fill: url(#dark_linear_2);
                fill-rule:nonzero;
            }
            #path_3 {
                fill: url(#dark_linear_3);
                fill-rule:nonzero;
            } -->
            :root { filter: contrast(0.625) brightness(2.5); }
        }
    </style>
</svg>