<?xml version="1.0" encoding="UTF-8" standalone="no"?>
<!DOCTYPE svg PUBLIC "-//W3C//DTD SVG 1.1//EN" "http://www.w3.org/Graphics/SVG/1.1/DTD/svg11.dtd">
<svg width="120px" viewBox="0 0 120 40" version="1.1" xmlns="http://www.w3.org/2000/svg" xmlns:xlink="http://www.w3.org/1999/xlink" xml:space="preserve" xmlns:serif="http://www.serif.com/" style="fill-rule:evenodd;clip-rule:evenodd;stroke-linejoin:round;stroke-miterlimit:2;">
    <g>
        <g>
            <g>
                <path d="M110.135,0L9.535,0C9.168,0 8.806,0 8.44,0.002C8.134,0.004 7.83,0.01 7.521,0.015C6.85,0.023 6.18,0.082 5.517,0.191C4.856,0.304 4.215,0.515 3.616,0.818C3.019,1.124 2.472,1.522 1.998,1.997C1.52,2.471 1.122,3.018 0.819,3.618C0.515,4.217 0.305,4.859 0.194,5.521C0.083,6.183 0.023,6.853 0.015,7.523C0.006,7.83 0.005,8.138 0,8.444L0,31.559C0.005,31.869 0.006,32.17 0.015,32.481C0.023,33.151 0.083,33.821 0.194,34.482C0.304,35.145 0.515,35.788 0.819,36.387C1.122,36.985 1.52,37.53 1.998,38.001C2.471,38.478 3.017,38.876 3.616,39.18C4.215,39.484 4.855,39.697 5.517,39.81C6.18,39.919 6.85,39.978 7.521,39.987C7.83,39.994 8.134,39.998 8.44,39.998C8.806,40 9.168,40 9.535,40L110.135,40C110.494,40 110.859,40 111.219,39.998C111.523,39.998 111.836,39.994 112.141,39.987C112.811,39.979 113.479,39.92 114.141,39.81C114.804,39.696 115.448,39.483 116.049,39.18C116.647,38.876 117.194,38.478 117.666,38.001C118.142,37.528 118.541,36.983 118.848,36.387C119.15,35.787 119.358,35.145 119.467,34.482C119.578,33.821 119.64,33.151 119.652,32.481C119.656,32.17 119.656,31.869 119.656,31.559C119.664,31.195 119.664,30.834 119.664,30.465L119.664,9.536C119.664,9.17 119.664,8.807 119.656,8.444C119.656,8.138 119.656,7.83 119.652,7.523C119.64,6.852 119.578,6.183 119.467,5.521C119.358,4.859 119.149,4.217 118.848,3.618C118.23,2.415 117.251,1.436 116.049,0.818C115.448,0.516 114.804,0.304 114.141,0.191C113.48,0.081 112.811,0.022 112.141,0.015C111.836,0.01 111.523,0.004 111.219,0.002C110.859,-0 110.494,-0 110.135,-0L110.135,0Z" style="fill:rgb(166,166,166);fill-rule:nonzero;"/>
                <path d="M8.445,39.125C8.14,39.125 7.843,39.121 7.541,39.114C6.914,39.106 6.29,39.052 5.671,38.951C5.095,38.852 4.537,38.667 4.015,38.403C3.498,38.142 3.026,37.798 2.618,37.387C2.204,36.98 1.859,36.508 1.597,35.99C1.333,35.469 1.149,34.91 1.054,34.333C0.951,33.713 0.896,33.086 0.888,32.458C0.881,32.247 0.873,31.545 0.873,31.545L0.873,8.444C0.873,8.444 0.882,7.753 0.888,7.55C0.895,6.922 0.951,6.297 1.053,5.678C1.149,5.099 1.332,4.539 1.597,4.016C1.857,3.498 2.2,3.026 2.612,2.618C3.023,2.206 3.496,1.861 4.014,1.595C4.535,1.332 5.092,1.149 5.667,1.051C6.288,0.95 6.915,0.895 7.543,0.887L8.445,0.875L111.214,0.875L112.127,0.888C112.75,0.895 113.371,0.949 113.985,1.05C114.566,1.149 115.13,1.334 115.656,1.598C116.694,2.133 117.539,2.979 118.071,4.018C118.332,4.538 118.512,5.094 118.606,5.667C118.71,6.291 118.768,6.922 118.78,7.554C118.783,7.837 118.783,8.142 118.783,8.444C118.791,8.819 118.791,9.176 118.791,9.536L118.791,30.465C118.791,30.828 118.791,31.183 118.783,31.54C118.783,31.865 118.783,32.163 118.779,32.47C118.768,33.091 118.71,33.71 118.608,34.323C118.515,34.904 118.333,35.468 118.068,35.993C117.805,36.506 117.462,36.973 117.053,37.379C116.644,37.793 116.172,38.138 115.653,38.401C115.128,38.667 114.566,38.853 113.985,38.951C113.367,39.052 112.742,39.107 112.116,39.114C111.823,39.121 111.517,39.125 111.219,39.125L110.135,39.127L8.445,39.125Z" style="fill-rule:nonzero;"/>
            </g>
        </g>
        <g transform="matrix(0.0225759,0,0,0.0225759,4.43182,11.704)">
            <g>
                <g transform="matrix(1,0,0,1,0,0.00103759)">
                    <path d="M1436.62,603.306L1493.01,460.708L1655.83,460.708L1578.56,244.392L1675.2,0.003L1952,734.936L1747.87,734.936L1700.57,603.306L1436.62,603.306Z" style="fill:white;fill-rule:nonzero;"/>
                </g>
                <path d="M1262.47,734.938L1558.79,0.004L1362.34,0.005L1159.64,474.936L1015.5,0.006L864.499,0.006L709.731,474.936L600.585,258.52L501.812,562.822L602.096,734.938L795.427,734.938L935.284,309.027L1068.63,734.938L1262.47,734.938Z" style="fill:rgb(90,15,200);fill-rule:nonzero;"/>
                <g transform="matrix(1,0,0,1,0,0.002)">
                    <path d="M186.476,482.645L307.479,482.645C344.133,482.645 376.772,478.555 405.396,470.373L436.689,373.965L524.148,104.519C517.484,93.956 509.876,83.969 501.324,74.559C456.419,24.854 390.719,0.003 304.222,0.003L-0,0.003L-0,734.936L186.476,734.936L186.476,482.645ZM346.642,169.082C364.182,186.735 372.951,210.357 372.951,239.952C372.951,269.775 365.238,293.426 349.813,310.909C332.903,330.334 301.766,340.046 256.404,340.046L186.476,340.046L186.476,142.601L256.918,142.601C299.195,142.601 329.103,151.428 346.642,169.082Z" style="fill:white;fill-rule:nonzero;"/>
                </g>
            </g>
        </g>
        <g transform="matrix(1,0,0,1,42,2.1416)">
            <g transform="matrix(9,0,0,9,17,11.6445)">
                <path d="M0.088,-0L0.528,-0L0.528,-0.094L0.198,-0.094L0.198,-0.705L0.088,-0.705L0.088,-0Z" style="fill:white;fill-rule:nonzero;"/>
            </g>
            <g transform="matrix(9,0,0,9,22.1987,11.6445)">
                <path d="M0.222,0.009C0.292,0.009 0.348,-0.021 0.379,-0.075L0.387,-0.075L0.387,-0L0.492,-0L0.492,-0.363C0.492,-0.474 0.417,-0.541 0.284,-0.541C0.163,-0.541 0.08,-0.482 0.067,-0.396L0.066,-0.392L0.168,-0.392L0.169,-0.394C0.182,-0.432 0.22,-0.453 0.279,-0.453C0.351,-0.453 0.387,-0.421 0.387,-0.363L0.387,-0.316L0.244,-0.308C0.117,-0.3 0.046,-0.245 0.046,-0.15L0.046,-0.149C0.046,-0.053 0.121,0.009 0.222,0.009ZM0.151,-0.153L0.151,-0.154C0.151,-0.202 0.185,-0.229 0.258,-0.233L0.387,-0.241L0.387,-0.196C0.387,-0.127 0.329,-0.076 0.25,-0.076C0.193,-0.076 0.151,-0.104 0.151,-0.153Z" style="fill:white;fill-rule:nonzero;"/>
            </g>
            <g transform="matrix(9,0,0,9,27.2876,11.6445)">
                <path d="M0.253,0.01C0.33,0.01 0.384,-0.023 0.409,-0.08L0.417,-0.08L0.417,-0L0.523,-0L0.523,-0.53L0.417,-0.53L0.417,-0.219C0.417,-0.134 0.372,-0.081 0.287,-0.081C0.209,-0.081 0.177,-0.124 0.177,-0.212L0.177,-0.53L0.071,-0.53L0.071,-0.187C0.071,-0.062 0.133,0.01 0.253,0.01Z" style="fill:white;fill-rule:nonzero;"/>
            </g>
            <g transform="matrix(9,0,0,9,32.6797,11.6445)">
                <path d="M0.076,-0L0.182,-0L0.182,-0.311C0.182,-0.396 0.23,-0.45 0.308,-0.45C0.386,-0.45 0.422,-0.406 0.422,-0.318L0.422,-0L0.528,-0L0.528,-0.343C0.528,-0.47 0.462,-0.541 0.344,-0.541C0.267,-0.541 0.216,-0.506 0.19,-0.45L0.182,-0.45L0.182,-0.53L0.076,-0.53L0.076,-0Z" style="fill:white;fill-rule:nonzero;"/>
            </g>
            <g transform="matrix(9,0,0,9,38.0718,11.6445)">
                <path d="M0.299,0.01C0.431,0.01 0.506,-0.061 0.525,-0.164L0.526,-0.168L0.425,-0.168L0.424,-0.166C0.407,-0.108 0.366,-0.078 0.299,-0.078C0.212,-0.078 0.158,-0.149 0.158,-0.267L0.158,-0.268C0.158,-0.382 0.211,-0.452 0.299,-0.452C0.37,-0.452 0.413,-0.413 0.424,-0.361L0.425,-0.359L0.526,-0.36L0.526,-0.362C0.512,-0.465 0.432,-0.541 0.299,-0.541C0.144,-0.541 0.05,-0.436 0.05,-0.268L0.05,-0.267C0.05,-0.095 0.145,0.01 0.299,0.01Z" style="fill:white;fill-rule:nonzero;"/>
            </g>
            <g transform="matrix(9,0,0,9,43.2002,11.6445)">
                <path d="M0.081,-0L0.187,-0L0.187,-0.311C0.187,-0.396 0.235,-0.45 0.313,-0.45C0.391,-0.45 0.427,-0.406 0.427,-0.318L0.427,-0L0.533,-0L0.533,-0.343C0.533,-0.47 0.467,-0.541 0.349,-0.541C0.271,-0.541 0.221,-0.506 0.195,-0.45L0.187,-0.45L0.187,-0.738L0.081,-0.738L0.081,-0Z" style="fill:white;fill-rule:nonzero;"/>
            </g>
            <g transform="matrix(9,0,0,9,51.0928,11.6445)">
                <path d="M0.222,0.009C0.292,0.009 0.348,-0.021 0.379,-0.075L0.387,-0.075L0.387,-0L0.492,-0L0.492,-0.363C0.492,-0.474 0.417,-0.541 0.284,-0.541C0.163,-0.541 0.08,-0.482 0.067,-0.396L0.066,-0.392L0.168,-0.392L0.169,-0.394C0.182,-0.432 0.22,-0.453 0.279,-0.453C0.351,-0.453 0.387,-0.421 0.387,-0.363L0.387,-0.316L0.244,-0.308C0.117,-0.3 0.046,-0.245 0.046,-0.15L0.046,-0.149C0.046,-0.053 0.121,0.009 0.222,0.009ZM0.151,-0.153L0.151,-0.154C0.151,-0.202 0.185,-0.229 0.258,-0.233L0.387,-0.241L0.387,-0.196C0.387,-0.127 0.329,-0.076 0.25,-0.076C0.193,-0.076 0.151,-0.104 0.151,-0.153Z" style="fill:white;fill-rule:nonzero;"/>
            </g>
            <g transform="matrix(9,0,0,9,56.1816,11.6445)">
                <path d="M0.269,0.01C0.395,0.01 0.489,-0.057 0.489,-0.155L0.489,-0.156C0.489,-0.232 0.44,-0.276 0.338,-0.3L0.254,-0.319C0.194,-0.333 0.17,-0.354 0.17,-0.387L0.17,-0.388C0.17,-0.43 0.212,-0.459 0.27,-0.459C0.33,-0.459 0.367,-0.431 0.377,-0.394L0.377,-0.393L0.479,-0.393L0.479,-0.394C0.469,-0.48 0.392,-0.541 0.271,-0.541C0.15,-0.541 0.064,-0.474 0.064,-0.382L0.064,-0.381C0.064,-0.304 0.111,-0.258 0.211,-0.235L0.295,-0.216C0.357,-0.202 0.382,-0.179 0.382,-0.146L0.382,-0.145C0.382,-0.102 0.336,-0.072 0.271,-0.072C0.208,-0.072 0.169,-0.099 0.156,-0.139L0.156,-0.139L0.05,-0.139L0.05,-0.139C0.06,-0.05 0.141,0.01 0.269,0.01Z" style="fill:white;fill-rule:nonzero;"/>
            </g>
        </g>
        <g transform="matrix(1,0,0,1,33.5,11.5)">
            <g transform="matrix(16,0,0,16,17,16.8438)">
                <path d="M0.232,-0L0.351,-0L0.493,-0.504L0.5,-0.504L0.644,-0L0.762,-0L0.951,-0.705L0.821,-0.705L0.7,-0.176L0.693,-0.176L0.553,-0.705L0.441,-0.705L0.302,-0.176L0.295,-0.176L0.174,-0.705L0.043,-0.705L0.232,-0Z" style="fill:white;fill-rule:nonzero;"/>
            </g>
            <g transform="matrix(16,0,0,16,31.4503,16.8438)">
                <path d="M0.303,0.011C0.448,0.011 0.519,-0.073 0.536,-0.142L0.538,-0.146L0.422,-0.146L0.42,-0.143C0.409,-0.118 0.371,-0.085 0.305,-0.085C0.223,-0.085 0.171,-0.141 0.169,-0.236L0.542,-0.236L0.542,-0.276C0.542,-0.438 0.449,-0.544 0.297,-0.544C0.145,-0.544 0.048,-0.434 0.048,-0.266L0.048,-0.266C0.048,-0.096 0.144,0.011 0.303,0.011ZM0.298,-0.449C0.366,-0.449 0.416,-0.405 0.424,-0.318L0.17,-0.318C0.18,-0.403 0.23,-0.449 0.298,-0.449Z" style="fill:white;fill-rule:nonzero;"/>
            </g>
            <g transform="matrix(16,0,0,16,40.3278,16.8438)">
                <path d="M0.371,0.009C0.505,0.009 0.59,-0.097 0.59,-0.266L0.59,-0.267C0.59,-0.437 0.506,-0.542 0.371,-0.542C0.298,-0.542 0.237,-0.506 0.209,-0.449L0.201,-0.449L0.201,-0.74L0.079,-0.74L0.079,-0L0.201,-0L0.201,-0.083L0.209,-0.083C0.238,-0.025 0.296,0.009 0.371,0.009ZM0.333,-0.094C0.25,-0.094 0.199,-0.159 0.199,-0.266L0.199,-0.267C0.199,-0.374 0.25,-0.44 0.333,-0.44C0.416,-0.44 0.466,-0.375 0.466,-0.267L0.466,-0.266C0.466,-0.159 0.416,-0.094 0.333,-0.094Z" style="fill:white;fill-rule:nonzero;"/>
            </g>
            <g transform="matrix(16,0,0,16,52.3567,16.8438)">
                <path d="M0.035,-0L0.167,-0L0.225,-0.182L0.486,-0.182L0.545,-0L0.677,-0L0.427,-0.705L0.285,-0.705L0.035,-0ZM0.352,-0.574L0.36,-0.574L0.455,-0.279L0.257,-0.279L0.352,-0.574Z" style="fill:white;fill-rule:nonzero;"/>
            </g>
            <g transform="matrix(16,0,0,16,63.1717,16.8438)">
                <path d="M0.074,0.177L0.196,0.177L0.196,-0.085L0.204,-0.085C0.232,-0.027 0.293,0.009 0.366,0.009C0.501,0.009 0.585,-0.096 0.585,-0.266L0.585,-0.267C0.585,-0.436 0.5,-0.542 0.366,-0.542C0.292,-0.542 0.233,-0.508 0.204,-0.45L0.196,-0.45L0.196,-0.534L0.074,-0.534L0.074,0.177ZM0.328,-0.094C0.246,-0.094 0.194,-0.16 0.194,-0.267L0.194,-0.268C0.194,-0.375 0.246,-0.44 0.328,-0.44C0.411,-0.44 0.461,-0.375 0.461,-0.267L0.461,-0.266C0.461,-0.159 0.411,-0.094 0.328,-0.094Z" style="fill:white;fill-rule:nonzero;"/>
            </g>
            <g transform="matrix(16,0,0,16,72.7523,16.8438)">
                <path d="M0.074,0.177L0.196,0.177L0.196,-0.085L0.204,-0.085C0.232,-0.027 0.293,0.009 0.366,0.009C0.501,0.009 0.585,-0.096 0.585,-0.266L0.585,-0.267C0.585,-0.436 0.5,-0.542 0.366,-0.542C0.292,-0.542 0.233,-0.508 0.204,-0.45L0.196,-0.45L0.196,-0.534L0.074,-0.534L0.074,0.177ZM0.328,-0.094C0.246,-0.094 0.194,-0.16 0.194,-0.267L0.194,-0.268C0.194,-0.375 0.246,-0.44 0.328,-0.44C0.411,-0.44 0.461,-0.375 0.461,-0.267L0.461,-0.266C0.461,-0.159 0.411,-0.094 0.328,-0.094Z" style="fill:white;fill-rule:nonzero;"/>
            </g>
        </g>
    </g>
</svg>
