<?xml version="1.0" standalone="no"?>
<!DOCTYPE svg PUBLIC "-//W3C//DTD SVG 20010904//EN"
 "http://www.w3.org/TR/2001/REC-SVG-20010904/DTD/svg10.dtd">
<svg version="1.0" xmlns="http://www.w3.org/2000/svg"
 width="820.000000pt" height="820.000000pt" viewBox="0 0 820.000000 820.000000"
 preserveAspectRatio="xMidYMid meet">
<metadata>
Created by potrace 1.14, written by Peter Selinger 2001-2017
</metadata>
<g transform="translate(0.000000,820.000000) scale(0.100000,-0.100000)"
fill="#000000" stroke="none">
<path d="M1728 7459 c-248 -26 -436 -79 -653 -184 -392 -189 -690 -487 -880
-880 -84 -174 -145 -364 -171 -530 -4 -27 -9 -61 -11 -75 -8 -55 -9 -372 -1
-432 10 -77 19 -140 22 -153 2 -5 6 -28 10 -50 85 -440 415 -920 817 -1188
219 -145 493 -247 759 -282 142 -19 436 -21 2481 -23 1235 -1 2272 -4 2305 -7
145 -12 339 -84 475 -176 104 -70 234 -209 298 -319 93 -159 143 -342 143
-520 1 -499 -329 -901 -832 -1015 -99 -22 -342 -15 -445 14 -296 83 -523 266
-658 531 -83 163 -110 273 -111 450 -1 155 8 216 55 354 30 85 41 108 96 203
l25 43 -483 -3 -483 -2 -22 -84 c-13 -46 -26 -97 -28 -115 -3 -17 -7 -40 -10
-51 -2 -11 -7 -42 -10 -70 -4 -27 -9 -66 -12 -85 -11 -80 -5 -332 11 -430 2
-14 6 -45 10 -70 13 -84 46 -210 81 -312 128 -368 424 -746 747 -956 196 -127
457 -230 684 -272 35 -6 75 -13 90 -16 103 -19 417 -26 493 -10 14 3 46 7 71
10 74 9 266 61 374 101 494 185 879 557 1088 1050 50 117 109 328 123 438 3
23 9 66 13 96 9 56 6 397 -3 441 -3 14 -10 52 -15 85 -6 33 -13 74 -16 90 -9
48 -45 178 -54 200 -5 11 -21 50 -35 88 -54 141 -195 374 -310 511 -207 247
-403 395 -716 540 -94 43 -333 106 -460 122 -30 3 -68 8 -85 11 -16 3 -997 7
-2180 9 -2165 4 -2541 6 -2605 19 -57 11 -205 62 -262 91 -145 73 -287 194
-381 325 -49 69 -137 244 -137 272 0 9 -4 18 -9 21 -9 6 -11 20 -34 171 -38
258 34 532 196 750 50 67 176 185 246 230 194 125 362 175 581 176 494 0 924
-369 1008 -864 9 -55 9 -268 -1 -332 -16 -106 -71 -250 -136 -361 l-30 -52
480 0 481 1 9 24 c13 35 47 172 54 218 3 23 7 50 9 62 19 99 26 331 13 468
-19 201 -86 434 -186 640 -55 115 -154 276 -210 341 -14 17 -35 42 -46 57 -12
14 -46 52 -76 84 -187 195 -398 340 -650 447 -49 21 -241 83 -275 90 -16 2
-40 7 -54 10 -161 36 -415 51 -572 35z"/>
<path d="M6005 7463 c-259 -27 -457 -81 -672 -183 -394 -188 -715 -509 -903
-905 -77 -162 -141 -387 -169 -595 -9 -66 -7 -417 2 -456 3 -12 8 -39 11 -60
3 -22 8 -50 11 -64 3 -14 7 -36 10 -50 3 -13 14 -57 26 -97 l22 -72 477 1
c536 1 490 -7 440 78 -110 190 -154 407 -127 633 35 297 204 564 462 732 117
77 209 114 370 151 17 4 93 8 170 10 153 4 250 -11 375 -59 354 -133 610 -453
658 -822 11 -82 7 -276 -7 -335 -30 -129 -71 -234 -134 -341 l-28 -47 482 2
482 1 19 65 c23 79 44 178 53 245 3 28 8 64 11 80 5 37 8 217 4 305 -3 65 -36
296 -45 310 -3 4 -7 24 -10 44 -10 59 -70 228 -121 338 -203 435 -581 789
-1034 968 -72 28 -240 78 -292 85 -23 4 -45 8 -48 10 -29 18 -392 39 -495 28z"/>
<path d="M231 3187 c-32 -102 -70 -284 -77 -372 -5 -64 -5 -324 0 -350 2 -11
7 -47 11 -80 3 -33 10 -78 15 -100 5 -22 11 -51 13 -65 14 -73 45 -175 90
-295 40 -105 208 -401 247 -435 3 -3 21 -25 40 -50 72 -96 271 -281 391 -365
250 -174 565 -294 864 -330 100 -12 385 -10 480 4 323 47 633 173 870 353 28
21 63 49 80 61 53 40 230 220 287 292 157 200 280 446 347 695 41 153 53 251
56 455 4 243 -7 335 -67 542 l-21 72 -478 0 -477 1 53 -108 c86 -172 115 -282
119 -452 5 -216 -56 -425 -175 -602 -53 -80 -196 -221 -274 -273 -116 -76
-272 -141 -390 -161 -58 -10 -304 -12 -355 -2 -384 70 -690 334 -805 694 -86
269 -65 527 64 786 l58 118 -478 -1 -478 0 -10 -32z"/>
</g>
</svg>
