<?xml version="1.0" standalone="no"?>
<!DOCTYPE svg PUBLIC "-//W3C//DTD SVG 20010904//EN"
 "http://www.w3.org/TR/2001/REC-SVG-20010904/DTD/svg10.dtd">
<svg version="1.0" xmlns="http://www.w3.org/2000/svg"
 width="1000.000000pt" height="1000.000000pt" viewBox="0 0 1000.000000 1000.000000"
 preserveAspectRatio="xMidYMid meet">
<metadata>
Created by potrace 1.14, written by Peter Selinger 2001-2017
</metadata>
<g transform="translate(0.000000,1000.000000) scale(0.100000,-0.100000)"
fill="#000000" stroke="none">
<path d="M828 9741 c-31 -3 -58 -8 -60 -11 -2 -3 -10 -17 -18 -32 -8 -14 -61
-63 -118 -108 -120 -95 -177 -161 -262 -300 -34 -55 -74 -110 -89 -121 l-26
-21 -3 -1294 c-2 -1150 -1 -1294 13 -1294 13 0 15 -37 15 -284 0 -156 4 -286
8 -288 24 -10 86 -5020 63 -5129 -11 -54 -32 -88 -67 -107 -15 -9 -15 -13 1
-63 65 -200 212 -350 409 -417 l81 -27 4230 0 4230 0 82 28 c197 66 338 208
410 412 l28 80 0 4230 0 4230 -28 80 c-74 209 -229 357 -442 421 -58 18 -227
19 -4230 20 -2293 1 -4196 -2 -4227 -5z m6427 -2337 c212 -104 260 -387 93
-553 -22 -23 -70 -56 -107 -74 l-66 -32 -1525 -5 -1525 -6 -76 -22 c-379 -109
-647 -372 -754 -737 -33 -111 -44 -308 -26 -434 48 -328 271 -633 573 -783 76
-37 120 -54 233 -86 l90 -25 820 -7 c815 -6 820 -6 868 -28 61 -27 136 -103
167 -167 35 -73 40 -190 9 -270 -30 -82 -120 -172 -204 -206 l-60 -24 -1135
-5 -1135 -5 -44 -23 c-60 -33 -137 -112 -163 -169 -32 -69 -32 -218 -1 -285
48 -105 162 -189 281 -209 33 -5 517 -9 1133 -9 1152 0 1154 0 1309 51 306 99
583 372 680 668 142 431 -6 908 -365 1174 -130 96 -268 158 -427 191 -67 14
-183 16 -850 16 -474 0 -790 4 -816 10 -113 26 -198 93 -248 196 -25 51 -29
70 -29 144 1 141 51 228 162 280 136 63 100 61 1010 58 809 -4 831 -4 941 -26
568 -112 1070 -544 1273 -1095 174 -473 136 -1008 -103 -1448 -99 -181 -269
-385 -433 -519 -232 -189 -517 -317 -823 -370 -116 -19 -158 -20 -1473 -20
-1307 0 -1357 1 -1429 20 -244 63 -433 248 -507 495 -17 56 -18 148 -21 1355
-3 1354 -1 1451 40 1640 82 383 314 761 601 982 269 207 593 340 917 377 41 5
755 9 1585 9 l1510 0 50 -24z"/>
</g>
</svg>
